/* XPM */
static char *grcoin_32x32[] = {
/* columns rows colors chars-per-pixel */
"32 32 90 1 ",
"  c #151920",
". c #1B1D24",
"X c #172032",
"o c #1D2531",
"O c #242427",
"+ c #22252D",
"@ c #27292F",
"# c #2D2C2D",
"$ c #312F2C",
"% c #33302D",
"& c #222630",
"* c #242931",
"= c #2A2D31",
"- c #3F3930",
"; c #3B3A39",
": c #40321D",
"> c #403B28",
", c #593F26",
"< c #5E451D",
"1 c #74531E",
"2 c #7C5A1A",
"3 c #4D4028",
"4 c #554426",
"5 c #594625",
"6 c #5D4A24",
"7 c #524328",
"8 c #5A4429",
"9 c #584F3F",
"0 c #644D22",
"q c #6A4B22",
"w c #705323",
"e c #3A3F48",
"r c #4A4842",
"t c #494948",
"y c #5F5C55",
"u c #5A5C5D",
"i c #7D7973",
"p c #85611B",
"a c #8F671A",
"s c #91661B",
"d c #9E6119",
"f c #AA6118",
"g c #A47314",
"h c #AC7A13",
"j c #C46F13",
"k c #C96F11",
"l c #E8790A",
"z c #F97D03",
"x c #F87F0A",
"c c #CA830E",
"v c #CB890C",
"b c #D4870F",
"n c #D69106",
"m c #DB9509",
"M c #D38E10",
"N c #ED8B08",
"B c #FA8406",
"V c #F28804",
"C c #FC8B06",
"Z c #F7830A",
"A c #FA8409",
"S c #FD8A09",
"D c #E79A07",
"F c #E99C06",
"G c #E2990A",
"H c #E89B0C",
"J c #FD9304",
"K c #FC9C03",
"L c #FF9209",
"P c #F6A504",
"I c #FCA402",
"U c #F6A802",
"Y c #FDAA02",
"T c #FFB200",
"R c #FFB801",
"E c #FFB215",
"W c #FA972D",
"Q c #FF9A2A",
"! c #8B8778",
"~ c #F8A54C",
"^ c #FBB744",
"/ c #FFB45E",
"( c #CAB17A",
") c #A19B93",
"_ c #DAC68E",
"` c #F9D992",
"' c #DCD3BD",
"] c #F4E9CF",
"[ c #F8F7E0",
"{ c None",
/* pixels */
"{{{{{{{{{{{{{{{{{{{{{{{{{{{{{{{{",
"{{{{{{{{{{{{{{{{{{{{{{{{{{{{{{{{",
"{{{{{{{{{{{{{{{{{{{{{{{{{{{{{{{{",
"{{{{{{{{Z{{{{{{{{{{{{{{{{{{{{{{{",
"{{{{{{{{{Z{{{{{{{{{{{{{{{{{{{{{{",
"{{{{{{{{{Z{{{{{{{{{{{{{{{{{{{{{{",
"{{{{{{{{IA{{{{B{{{{{{{{{{{{{{{{{",
"{{{{{{{{ILxS{{{SS{{{{{{{{{{{{{{{",
"{{{{{{{{{YLSA{{{SSA{{A{{{{{{{{{{",
"{{{{{{{{{IYCSA{ASASZ{{{{{{{{{{{{",
"{{{{{{{A{BYYBSABSBSB{B{{{{{{{{{{",
"{{{{{{{{ASKIILCxBLCAzQW{{{{{{{{{",
"{{{{{{{{{LBSJKCJJBCAz~/z{{{{{{{{",
"{{{{{{{Z{KYBSNcpaYIKBBBL{{{{{{{{",
"{{{{{{{{CIJJv>#X3YYYKBSA{{{{{{{{",
"{{{{{{{{CICm$+$@5YIYISAS{{{{{{{{",
"{{{{{{{{ACYpo$$&6YYYIBZBY{{{{{{{",
"{{{{{{ASBJT0+##@aYIYKBBBYY{{{{{{",
"{{{{{{{SBIY0+$$*0YYYYJBBII{{{{{{",
"{{{{{{{{SPT1w<.*5mPIIIBxIY{{{{{{",
"{{{{{{{ZCPYg5_u.>2H`^JABIY{{{{{{",
"{{{{{{{ASIYG:([!.r']ECABIP{{{{{{",
"{{{{{{{{ZKYF=Or;ittMndBCY{{{{{{{",
"{{{{{{{{{CYIp$O#)y 7qkBKI{{{{{{{",
"{{{{{{{{{AIYYF7@O#=fAASI{{{{{{{{",
"{{{{{{{{{{AIUY7&%%&jSSI{{{{{{{{{",
"{{{{{{{{{{{AIYh=@*,lLI{{{{{{{{{{",
"{{{{{{{{{{{{{CYb81VIY{{{{{{{{{{{",
"{{{{{{{{{{{{{{{IIYRY{{{{{{{{{{{{",
"{{{{{{{{{{{{PIYUIYY{{{{{{{{{{{{{",
"{{{{{{{{{{{{{{{{{{{{{{{{{{{{{{{{",
"{{{{{{{{{{{{{{{{{{{{{{{{{{{{{{{{"
};
