/* XPM */
static char *grcoin_64x64[] = {
/* columns rows colors chars-per-pixel */
"64 64 146 2 ",
"   c #1C1D23",
".  c #0D1D34",
"X  c #101E37",
"o  c #1D232F",
"O  c #1D2431",
"+  c #232324",
"@  c #282422",
"#  c #282827",
"$  c #25272A",
"%  c #24282F",
"&  c #2C2D2D",
"*  c #312F2E",
"=  c #33312D",
"-  c #3B342C",
";  c #212630",
":  c #232931",
">  c #2A2C30",
",  c #332F31",
"<  c #2F3030",
"1  c #343434",
"2  c #383736",
"3  c #3B3B3A",
"4  c #45372B",
"5  c #443A2A",
"6  c #4A3D29",
"7  c #563B26",
"8  c #503D28",
"9  c #403F3C",
"0  c #644518",
"q  c #794E1F",
"w  c #72501C",
"e  c #7D5C1E",
"r  c #564326",
"t  c #5D4622",
"y  c #5E4925",
"u  c #664625",
"i  c #624D25",
"p  c #764D21",
"a  c #6F5421",
"s  c #775921",
"d  c #7B5B20",
"f  c #494845",
"g  c #504C42",
"h  c #52514D",
"j  c #5C5A55",
"k  c #56585A",
"l  c #61605D",
"z  c #6A6766",
"x  c #79766C",
"c  c #7B796E",
"v  c #707170",
"b  c #7D7976",
"n  c #8C5A0C",
"m  c #85561D",
"M  c #89551E",
"N  c #815E1C",
"B  c #9A5C1D",
"V  c #84601E",
"C  c #8D651B",
"Z  c #946514",
"A  c #9E6E15",
"S  c #93661C",
"D  c #936919",
"F  c #996B18",
"G  c #B16613",
"H  c #BC6B15",
"J  c #A37215",
"K  c #A57218",
"L  c #B07713",
"P  c #B77F12",
"I  c #BA7F11",
"U  c #896D38",
"Y  c #A3792D",
"T  c #CE730E",
"R  c #D0730E",
"E  c #DC750C",
"W  c #D67C0A",
"Q  c #ED7F0A",
"!  c #F97D04",
"~  c #F57F09",
"^  c #F97F09",
"/  c #BB8010",
"(  c #C2830D",
")  c #C5890E",
"_  c #CA8A0E",
"`  c #D58F0B",
"'  c #DC940A",
"]  c #E48808",
"[  c #F68207",
"{  c #FA8406",
"}  c #FC8B05",
"|  c #F6830A",
" . c #FA8409",
".. c #F78B0A",
"X. c #FE8B09",
"o. c #E79400",
"O. c #E59B04",
"+. c #EB9D06",
"@. c #EE9A0A",
"#. c #E3950B",
"$. c #FC9304",
"%. c #F49E04",
"&. c #FC9C03",
"*. c #FF9209",
"=. c #ECA205",
"-. c #F6A304",
";. c #FBA502",
":. c #F7A802",
">. c #FDAA01",
",. c #F6A20A",
"<. c #FAA40B",
"1. c #FFB201",
"2. c #C18F2E",
"3. c #F99122",
"4. c #9E8A68",
"5. c #FCA749",
"6. c #FCBB41",
"7. c #FAAE5E",
"8. c #C0AD7D",
"9. c #CAB17A",
"0. c #FAB368",
"q. c #FCCF6E",
"w. c #EFC274",
"e. c #FBD27F",
"r. c #FFDF7D",
"t. c #8C8B8A",
"y. c #969384",
"u. c #B6B2A1",
"i. c #BEBAA4",
"p. c #BEB8B3",
"a. c #FACE80",
"s. c #EFDBB0",
"d. c #DED5C4",
"f. c #E1DCD7",
"g. c #E9E6CA",
"h. c #FCE6CF",
"j. c #EEEADB",
"k. c #F2EBDF",
"l. c #FBF5D6",
"z. c #F9F5D8",
"x. c #F6F3E6",
"c. c #FFFFE5",
"v. c #FFFFEB",
"b. c #FFFFF3",
"n. c #FEFFFE",
"m. c None",
/* pixels */
"m.m.m.m.m.m.m.m.m.m.m.m.m.m.m.m.m.m.m.m.m.m.m.m.m.m.m.m.m.m.m.m.m.m.m.m.m.m.m.m.m.m.m.m.m.m.m.m.m.m.m.m.m.m.m.m.m.m.m.m.m.m.m.m.",
"m.m.m.m.m.m.m.m.m.m.m.m.m.m.m.m.m.m.m.m.m.m.m.m.m.m.m.m.m.m.m.m.m.m.m.m.m.m.m.m.m.m.m.m.m.m.m.m.m.m.m.m.m.m.m.m.m.m.m.m.m.m.m.m.",
"m.m.m.m.m.m.m.m.m.m.m.m.m.m.m.m.m.m.m.m.m.m.m.m.m.m.m.m.m.m.m.m.m.m.m.m.m.m.m.m.m.m.m.m.m.m.m.m.m.m.m.m.m.m.m.m.m.m.m.m.m.m.m.m.",
"m.m.m.m.m.m.m.m.m.m.m.m.m.m.m.m.m.m.m.m.m.m.m.m.m.m.m.m.m.m.m.m.m.m.m.m.m.m.m.m.m.m.m.m.m.m.m.m.m.m.m.m.m.m.m.m.m.m.m.m.m.m.m.m.",
"m.m.m.m.m.m.m.m.m.m.m.m.m.m.m.[ m.m.m.m.m.m.m.m.m.m.m.m.m.m.m.m.m.m.m.m.m.m.m.m.m.m.m.m.m.m.m.m.m.m.m.m.m.m.m.m.m.m.m.m.m.m.m.m.",
"m.m.m.m.m.m.m.m.m.m.m.m.m.m.m.m. .m.m.m.m.m.m.m.m.m.m.m.m.m.m.m.m.m.m.m.m.m.m.m.m.m.m.m.m.m.m.m.m.m.m.m.m.m.m.m.m.m.m.m.m.m.m.m.",
"m.m.m.m.m.m.m.m.m.m.m.m.m.m.m.m.| X.m.m.m.m.m.m.m.m.m.m.m.m.m.m.m.m.m.m.m.m.m.m.m.m.m.m.m.m.m.m.m.m.m.m.m.m.m.m.m.m.m.m.m.m.m.m.",
"m.m.m.m.m.m.m.m.m.m.m.m.m.m.m.m.m.| X.m.m.m.m.m.m.m.m.m.m.m.m.m.m.m.m.m.m.m.m.m.m.m.m.m.m.m.m.m.m.m.m.m.m.m.m.m.m.m.m.m.m.m.m.m.",
"m.m.m.m.m.m.m.m.m.m.m.m.m.m.m.m.m.| *.| m.m.m.m.m.m.m.m.m.m.m.m.m.m.m.m.m.m.m.m.m.m.m.m.m.m.m.m.m.m.m.m.m.m.m.m.m.m.m.m.m.m.m.m.",
"m.m.m.m.m.m.m.m.m.m.m.m.m.m.m.m.m.m.*.| m.m.m.m.m.m.m.m.m.m.m.m.m.m.m.m.m.m.m.m.m.m.m.m.m.m.m.m.m.m.m.m.m.m.m.m.m.m.m.m.m.m.m.m.",
"m.m.m.m.m.m.m.m.m.m.m.m.m.m.m.<.m.m.*. .m.m.m.m.m.m.m.m.m.m.m.m.m.m.m.m.m.m.m.m.m.m.m.m.m.m.m.m.m.m.m.m.m.m.m.m.m.m.m.m.m.m.m.m.",
"m.m.m.m.m.m.m.m.m.m.m.m.m.m.m.>.m.| *.| m.m.m.m.m.m.m.m.m.m.m.m.m.m.m.m.m.m.m.m.m.m.m.m.m.m.m.m.m.m.m.m.m.m.m.m.m.m.m.m.m.m.m.m.",
"m.m.m.m.m.m.m.m.m.m.m.m.m.m.m.<.>. . .X.m.m.m.m.m.m.m.{ m.m.m.m.m.m.m.m.m.m.m.m.m.m.m.m.m.m.m.m.m.m.m.m.m.m.m.m.m.m.m.m.m.m.m.m.",
"m.m.m.m.m.m.m.m.m.m.m.m.m.m.m.m.1.} | X.| m.m.m.m.m.m.m.{ X. .X.m.m.m.m.m.m.m.m.m.m.m.m.m.m.m.m.m.m.m.m.m.m.m.m.m.m.m.m.m.m.m.m.",
"m.m.m.m.m.m.m.m.m.m.m.m.| m.m.m.>.&.^  .X.m.m.| m.m.m.m.m.X.X.X. . .m.m.m.m.m.m.m.m.m.m.m.m.m.m.m.m.m.m.m.m.m.m.m.m.m.m.m.m.m.m.",
"m.m.m.m.m.m.m.m.m.m.m.m.m.m.m.m.m.1.$. .| X.m. . .m.m.m.m.m. .X.| *.| | m.m.m.m.m.m.m.m.m.m.m.m.m.m.m.m.m.m.m.m.m.m.m.m.m.m.m.m.",
"m.m.m.m.m.m.m.m.m.m.m.m.m.m.m.m.m.<.1.&.X. .X. .*.m.m.m.m.m.m. . . .X. .X.m.m.m.m. .X.m.m.m.m.m.m.m.m.m.m.m.m.m.m.m.m.m.m.m.m.m.",
"m.m.m.m.m.m.m.m.m.m.m.m.m.m.m.m.m.m.>.>.>.$.|  . . .m.m.m.X.m.m.X. .|  . . .m.m.m.m... .m.m.m.m.m.m.m.m.m.m.m.m.m.m.m.m.m.m.m.m.",
"m.m.m.m.m.m.m.m.m.m.m.m.m.m.m.m.m.m.<.1.;.>.X. . .X. .m.m.m.X. .X. . . . .X.| m.m.m.m. .m.m.m.m.m.m.m.m.m.m.m.m.m.m.m.m.m.m.m.m.",
"m.m.m.m.m.m.m.m.m.m.m.m.m.m.| m.m.m.m.>.&.;.;.X. .| X. .m.m.| *. . . . . . .X.m.m.m.m.| m.m.m.m.m.m.m.m.m.m.m.m.m.m.m.m.m.m.m.m.",
"m.m.m.m.m.m.m.m.m.m.m.m.m.m.| ..m.m.m.&.&.&.>.&.!  . .X. .m. . . . . . . . .X. .m.m.m. .m.m.m.m.m.m.m.m.m.m.m.m.m.m.m.m.m.m.m.m.",
"m.m.m.m.m.m.m.m.m.m.m.m.m.m.m.X. .m. .} ;.;.;.>.$.{  . .X.X. . .|  .$.} {  . .X. .m.m.X.X.m.m.m.m.m.m.m.m.m.m.m.m.m.m.m.m.m.m.m.",
"m.m.m.m.m.m.m.m.m.m.m.m.m.m.m.m.*. . .&.;.>.>.>.>.$.{ {  . . . . .{ } ;.$. . . .X. .X.! } m.m.m.m.m.m.m.m.m.m.m.m.m.m.m.m.m.m.m.",
"m.m.m.m.m.m.m.m.m.m.m.m.m.m.m.m.m.X. . .X.} $.;.>.>.;.&.$.X. . .X.&.{ X.&.}  . . . .{ 0.5.{ m.m.m.m.m.m.m.m.m.m.m.m.m.m.m.m.m.m.",
"m.m.m.m.m.m.m.m.m.m.m.m.m.m.m.m.m. .X. . . .{  .$.>.>.;.&.} ^ ^ !  .{ !  .{ {  . . .! h.n. .X.m.m.m.m.m.m.m.m.m.m.m.m.m.m.m.m.m.",
"m.m.m.m.m.m.m.m.m.m.m.m.m.m.| m.m.m.>.&.} { }  . .X.} { ! { } $.$.$.$.} } { {  . . .! 3.7. . .X.m.m.m.m.m.m.m.m.m.m.m.m.m.m.m.m.",
"m.m.m.m.m.m.m.m.m.m.m.m.m.m.| m.m.m.;.>.>.&.}  . . . .$.;.;.+./ _ ) >.>.;.;.$.} {  . .{ !  .| *.| m.m.m.m.m.m.m.m.m.m.m.m.m.m.m.",
"m.m.m.m.m.m.m.m.m.m.m.m.m.m.| X.m.m.$.;.;.>.&.{  .} >.) D / - % ; a 1.;.;.>.>.;.$.{  . . . . .X...m.m.m.m.m.m.m.m.m.m.m.m.m.m.m.",
"m.m.m.m.m.m.m.m.m.m.m.m.m.m.m.X. .{ $.>.>.&.! { &.;.e $ = & # = O e 1.;.>.>.;.>.>.} { {  . . .X.m.m.m.m.m.m.m.m.m.m.m.m.m.m.m.m.",
"m.m.m.m.m.m.m.m.m.m.m.m.m.m.m.m.X.$.;.>.&.{ } ;.=.r o & & & & * O e 1.;.>.;.>.;.>.;.{ {  .{ X.{ m.m.m.m.m.m.m.m.m.m.m.m.m.m.m.m.",
"m.m.m.m.m.m.m.m.m.m.m.m.m.m.m.m. .$.>.&.! } ;.-.r o = & & & & * o e >.>.;.>.>.;.>.;.X. . . . .*.m.m.m.m.m.m.m.m.m.m.m.m.m.m.m.m.",
"m.m.m.m.m.m.m.m.m.m.m.m.m.m.m.m.m.X.;.X.{ &.1.C O * & & & & & & O d 1.;.>.>.;.>.;.;.}  . .{ | *.>.m.m.m.m.m.m.m.m.m.m.m.m.m.m.m.",
"m.m.m.m.m.m.m.m.m.m.m.m.m.m.m.m.m.X.[ ! &.>.+.= & & & # & & & & ; s 1.;.>.;.>.>.>.>.} { { {  .} >.>.m.m.m.m.m.m.m.m.m.m.m.m.m.m.",
"m.m.m.m.m.m.m.m.m.m.m.m.m.| m.m.| X.{ } ;.>.) : & & & & & & & = O C 1.-.;.>.>.;.;.;.X.{  . . .{ ;.1.-.m.m.m.m.m.m.m.m.m.m.m.m.m.",
"m.m.m.m.m.m.m.m.m.m.m.m.m...m.m.} { { &.>.>.J $ * & & & & # & & 5 ' >.;.>.>.;.;.>.$. .{  . . .{ &.>.>.m.m.m.m.m.m.m.m.m.m.m.m.m.",
"m.m.m.m.m.m.m.m.m.m.m.m.m. .X. .$.} } >.-.1.F O & & & & & & & & S K >.;.;.;.>.>.;.;.{ { {  . .{ &.>.1.;.m.m.m.m.m.m.m.m.m.m.m.m.",
"m.m.m.m.m.m.m.m.m.m.m.m.m. .X.| X.{ $.>.-.>.D O = & & & & & & & = d 1.-.;.>.>.;.;.>.} {  . .{ { $.:.>.;.m.m.m.m.m.m.m.m.m.m.m.m.",
"m.m.m.m.m.m.m.m.m.m.m.m.m.m.X. .[ { &.>.;.1.J o & 6 > # & & & & O e >.;.>.;.>.>.>.;.>.} { { | { $.>.>.>.m.m.m.m.m.m.m.m.m.m.m.m.",
"m.m.m.m.m.m.m.m.m.m.m.m.m.m.m. .{ { &.>.;.1.I ; $ L d : & & & = ; e 1.;.;.;.;.>.;.>.>.;.X.{ | { $.>.:.>.m.m.m.m.m.m.m.m.m.m.m.m.",
"m.m.m.m.m.m.m.m.m.m.m.m.m.m.m. .{ [ ;.>.;.>.' > 6 #.Z + & & & & O d 1.V +.>.;.;.>.&.;.;.}  . .{ $.>.>.>.m.m.m.m.m.m.m.m.m.m.m.m.",
"m.m.m.m.m.m.m.m.m.m.m.m.m.m.m.X. .} ;.>.;.>.;.6 > w 8.v # # = & O V e y 1.>.;.q.a.} ;.&.{  . .{ $.>.;.>.m.m.m.m.m.m.m.m.m.m.m.m.",
"m.m.m.m.m.m.m.m.m.m.m.m.m.m.m.*.{ | ;.>.;.;.>.N X n a.b.i.3   $ & - o ( O.2.s.n.e.&.>.}  . .{ { &.>.>.<.m.m.m.m.m.m.m.m.m.m.m.m.",
"m.m.m.m.m.m.m.m.m.m.m.m.m.m.m.X. .{ ;.;.;.;.>._ ; 0 6.v.v.g.c f 2 # 2 U 4.f.v.b.6.;.$.{ {  . .{ &.>.>.,.m.m.m.m.m.m.m.m.m.m.m.m.",
"m.m.m.m.m.m.m.m.m.m.m.m.m.m.m.X.|  .&.>.>.>.>.+.- : t 9.l.c.l.y.2 o 2 t.x.v.j.w.;.;.%.^  . . .[ &.1.;.m.m.m.m.m.m.m.m.m.m.m.m.m.",
"m.m.m.m.m.m.m.m.m.m.m.m.m.m.m. . .| $.;.;.;.>.O.= & % @ f j 2 + = l # + 3 k Y o.;.>.e E  . .{ } ;.1.,.m.m.m.m.m.m.m.m.m.m.m.m.m.",
"m.m.m.m.m.m.m.m.m.m.m.m.m.m.m.m. .| X.;.>.;.>.' & % * > # @ % # z k.h @ &   D 1.1.A & Q X. .[ $.>.-.-.m.m.m.m.m.m.m.m.m.m.m.m.m.",
"m.m.m.m.m.m.m.m.m.m.m.m.m.m.m.m.m. . .&.>.;.>.-.t O % * = & > # p.d.u.  1 & > J e . p } {  .{ &.>.%.m.m.m.m.m.m.m.m.m.m.m.m.m.m.",
"m.m.m.m.m.m.m.m.m.m.m.m.m.m.m.m.m.m.| } ;.>.;.>.%.D 6 : > & & & b j x # & & : - 7 q [ | [  .} 1.<.@.m.m.m.m.m.m.m.m.m.m.m.m.m.m.",
"m.m.m.m.m.m.m.m.m.m.m.m.m.m.m.m.m.m... .$.>.;.;.>.>.-.( 6 > & & + $ # & * % 8 R }  .} |  .| ;.>.m.m.m.m.m.m.m.m.m.m.m.m.m.m.m.m.",
"m.m.m.m.m.m.m.m.m.m.m.m.m.m.m.m.m.m.m.[ X.;.>.;.;.-.>.1.F O = & < < & & * $ H }  .[  . .{ $.1.m.m.m.m.m.m.m.m.m.m.m.m.m.m.m.m.m.",
"m.m.m.m.m.m.m.m.m.m.m.m.m.m.m.m.m.m.m.m.X.} ;.>.>.-.-.>.V ; = & & & & & * : B X.|  .{ [ ..1.>.m.m.m.m.m.m.m.m.m.m.m.m.m.m.m.m.m.",
"m.m.m.m.m.m.m.m.m.m.m.m.m.m.m.m.m.m.m.m.m.{ } ;.>.>.:.>.i ; = & & & & & * : u X.[  .[ } 1.>.m.m.m.m.m.m.m.m.m.m.m.m.m.m.m.m.m.m.",
"m.m.m.m.m.m.m.m.m.m.m.m.m.m.m.m.m.m.m.m.m.m.} } %.>.;.>.` = % = > < & = % * T X.[ ^ ..1.>.m.m.m.m.m.m.m.m.m.m.m.m.m.m.m.m.m.m.m.",
"m.m.m.m.m.m.m.m.m.m.m.m.m.m.m.m.m.m.m.m.m.m.m.{ } $.;.;.1.I , = = = = , = G } !  .&.1.>.m.m.m.m.m.m.m.m.m.m.m.m.m.m.m.m.m.m.m.m.",
"m.m.m.m.m.m.m.m.m.m.m.m.m.m.m.m.m.m.m.m.m.m.m.m.} } } $.;.>.' i O : O 4 Q { | $.;.>.>.m.m.m.m.m.m.m.m.m.m.m.m.m.m.m.m.m.m.m.m.m.",
"m.m.m.m.m.m.m.m.m.m.m.m.m.m.m.m.m.m.m.m.m.m.m.m.m.m.} } } } &.] m p m W $.%.-.>.>.m.m.m.m.m.m.m.m.m.m.m.m.m.m.m.m.m.m.m.m.m.m.m.",
"m.m.m.m.m.m.m.m.m.m.m.m.m.m.m.m.m.m.m.m.m.m.m.m.m.m.m.m.$.$.$.;.1.>.>.>.>.:.>.1.m.m.m.m.m.m.m.m.m.m.m.m.m.m.m.m.m.m.m.m.m.m.m.m.",
"m.m.m.m.m.m.m.m.m.m.m.m.m.m.m.m.m.m.m.m.m.m.m.m.m.m.m.m.m.m.m.m.m.,.-.>.>.>.>.m.m.m.m.m.m.m.m.m.m.m.m.m.m.m.m.m.m.m.m.m.m.m.m.m.",
"m.m.m.m.m.m.m.m.m.m.m.m.m.m.m.m.m.m.m.m.m.m.;.;.-.-.-.-.-.%.-.;.;.>.>.>.1.1.m.m.m.m.m.m.m.m.m.m.m.m.m.m.m.m.m.m.m.m.m.m.m.m.m.m.",
"m.m.m.m.m.m.m.m.m.m.m.m.m.m.m.m.m.m.m.m.m.m.m.m.>.;.<.1.1.1.1.>.>.<.;.>.m.m.m.m.m.m.m.m.m.m.m.m.m.m.m.m.m.m.m.m.m.m.m.m.m.m.m.m.",
"m.m.m.m.m.m.m.m.m.m.m.m.m.m.m.m.m.m.m.m.m.m.m.m.m.m.m.m.m.m.m.m.m.@.m.m.m.m.m.m.m.m.m.m.m.m.m.m.m.m.m.m.m.m.m.m.m.m.m.m.m.m.m.m.",
"m.m.m.m.m.m.m.m.m.m.m.m.m.m.m.m.m.m.m.m.m.m.m.m.m.m.m.m.m.m.m.m.m.m.m.m.m.m.m.m.m.m.m.m.m.m.m.m.m.m.m.m.m.m.m.m.m.m.m.m.m.m.m.m.",
"m.m.m.m.m.m.m.m.m.m.m.m.m.m.m.m.m.m.m.m.m.m.m.m.m.m.m.m.m.m.m.m.m.m.m.m.m.m.m.m.m.m.m.m.m.m.m.m.m.m.m.m.m.m.m.m.m.m.m.m.m.m.m.m.",
"m.m.m.m.m.m.m.m.m.m.m.m.m.m.m.m.m.m.m.m.m.m.m.m.m.m.m.m.m.m.m.m.m.m.m.m.m.m.m.m.m.m.m.m.m.m.m.m.m.m.m.m.m.m.m.m.m.m.m.m.m.m.m.m."
};
