/* XPM */
static char *grcoin_16x16[] = {
/* columns rows colors chars-per-pixel */
"16 16 81 1 ",
"  c #131F32",
". c #141F31",
"X c #1C202A",
"o c #172536",
"O c #393327",
"+ c #272930",
"@ c #603D1E",
"# c #4A3D26",
"$ c #453929",
"% c #463B2C",
"& c #514227",
"* c #664B22",
"= c #635637",
"- c #4E4C49",
"; c #5C5D61",
": c #7D7C73",
"> c #A77311",
", c #A17415",
"< c #A97115",
"1 c #BD7111",
"2 c #B37F10",
"3 c #B87E12",
"4 c #BC7F11",
"5 c #CD7C0F",
"6 c #F77C0A",
"7 c #8F7A56",
"8 c #D18C02",
"9 c #DE880B",
"0 c #E0870F",
"q c #FD8503",
"w c #F98306",
"e c #FA8404",
"r c #FD8607",
"t c #FF8806",
"y c #FF8D06",
"u c #FC8E07",
"i c #F7840A",
"p c #FA8608",
"a c #F8850B",
"s c #FF8C09",
"d c #F79204",
"f c #F99102",
"g c #FC9501",
"h c #FF9502",
"j c #FB9106",
"k c #FD9205",
"l c #FF9304",
"z c #F99405",
"x c #FD9404",
"c c #FF9407",
"v c #F79803",
"b c #FF9E03",
"n c #F89A04",
"m c #FF9805",
"M c #F99E07",
"N c #FF9108",
"B c #FF970B",
"V c #F98D1E",
"C c #FD9119",
"Z c #FF971A",
"A c #FAA103",
"S c #FAA302",
"D c #FFA200",
"F c #FDA203",
"G c #FFA401",
"H c #FFA701",
"J c #FFA402",
"K c #FAA204",
"L c #F9A705",
"P c #FFA406",
"I c #F8AA03",
"U c #FFAB02",
"Y c #FFAD00",
"T c #FFAF00",
"R c #FCAC03",
"E c #FFAA06",
"W c #FFB201",
"Q c #FFB500",
"! c #FDA91F",
"~ c #F0C976",
"^ c None",
/* pixels */
"^^^^^^^^^^^^^^^^",
"^^^^^^^^^^^^^^^^",
"^^^^a^^^^^^^^^^^",
"^^^^j^^^^^^^^^^^",
"^^^^^E6^Bi^^^^^^",
"^^^^pFltywC^^^^^",
"^^^^zmx59gZV^^^^",
"^^^^ln* ,Qfe^^^^",
"^^^^g4 +3WdsS^^^",
"^^^^J2$X>YMtK^^^",
"^^^^P87:#~!qK^^^",
"^^^^sI&-;=1NL^^^",
"^^^^^bYOo@Nv^^^^",
"^^^^^^F<$0G^^^^^",
"^^^^^^^UUY^^^^^^",
"^^^^^^^^^^^^^^^^"
};
